<?xml version="1.0" encoding="UTF-8"?>
<svg id="Capa_2" xmlns="http://www.w3.org/2000/svg" viewBox="0 0 76.5 76.5">
  <defs>
    <style>
      .cls-1, .cls-2 {
        fill-rule: evenodd;
        stroke: #000;
        stroke-miterlimit: 2;
        stroke-width: 1.5px;
      }

      .cls-2 {
        fill: #fff;
      }
    </style>
  </defs>
  <g id="Capa_1-2" data-name="Capa_1">
    <g>
      <path class="cls-2" d="M25.75.75h25c13.81,0,25,11.19,25,25h0v25c0,13.81-11.19,25-25,25h-25c-13.81,0-25-11.19-25-25v-25C.75,11.94,11.94.75,25.75.75h0"/>
      <path class="cls-1" d="M26.25,20c0,3.45-2.8,6.25-6.25,6.25s-6.25-2.8-6.25-6.25,2.8-6.25,6.25-6.25,6.25,2.8,6.25,6.25Z"/>
      <path class="cls-1" d="M26.25,56c0,3.45-2.8,6.25-6.25,6.25s-6.25-2.8-6.25-6.25,2.8-6.25,6.25-6.25,6.25,2.8,6.25,6.25Z"/>
      <path class="cls-1" d="M62.25,20c0,3.45-2.8,6.25-6.25,6.25s-6.25-2.8-6.25-6.25,2.8-6.25,6.25-6.25,6.25,2.8,6.25,6.25Z"/>
      <path class="cls-1" d="M62.25,56c0,3.45-2.8,6.25-6.25,6.25s-6.25-2.8-6.25-6.25,2.8-6.25,6.25-6.25,6.25,2.8,6.25,6.25Z"/>
      <path class="cls-1" d="M44.25,38c0,3.45-2.8,6.25-6.25,6.25s-6.25-2.8-6.25-6.25,2.8-6.25,6.25-6.25,6.25,2.8,6.25,6.25Z"/>
    </g>
  </g>
</svg>